# xmcd
#
# Track frame offsets:
#	150
#	13587
#	30580
#	41249
#	57065
#	69475
#	82606
#	95086
#	107088
#	119237
#	139330
#	150183
#
# Disc length: 2198 seconds
#
# Revision: 1
# Processed by: cddbd v1.5.2PL0 Copyright (c) Steve Scherf et al.
# Submitted via: audiograbber 1.83.01
#
DISCID=9808940c
DTITLE=Sampler - Welthungerhilfe
DYEAR=1974
DGENRE=Pop
TTITLE0=Daniel Boone  - Beautiful Sunday
TTITLE1=Katja Ebstein  - Das Glück Hat Viele Namen
TTITLE2=James Boys  - Over And Over
TTITLE3=John Kincade  - Hell Wie Die Sonne
TTITLE4=Neil Diamond  - I'm A Believer
TTITLE5=Cindy and Bert  - Ich Komm Bald Wieder
TTITLE6=Manuela  - Twingel Dingel Dee
TTITLE7=John Kincade  - Dreams Are Ten A Penny
TTITLE8=Udo Jürgens  - Warum Nur Warum
TTITLE9=Shuki and Aviva  - Listen
TTITLE10=Dieter Thomas Heck  - Carolina
TTITLE11=Reinhard Mey  - Die Heisse Schlacht Am Kalten Büffet
EXTD=
EXTT0=
EXTT1=
EXTT2=
EXTT3=
EXTT4=
EXTT5=
EXTT6=
EXTT7=
EXTT8=
EXTT9=
EXTT10=
EXTT11=
PLAYORDER=
